<svg width="340" height="290" viewBox="0 0 340 290" fill="none" xmlns="http://www.w3.org/2000/svg">
<path d="M145.015 66.8293C143.275 64.1687 142.014 61.2262 139.878 58.7915C139.872 58.3868 139.89 57.9903 139.97 57.6279C140.055 57.246 141.094 58.0776 141.377 58.1908C143.963 59.2249 147.205 60.6807 149.302 62.4776C151.705 64.5375 154.283 66.3768 156.273 68.8644C158.331 71.4373 160.822 73.1967 163.136 75.5111C167.577 79.9522 173.38 83.3163 176.581 88.956C178.28 91.9489 180.814 94.3934 182.427 97.5296C183.629 99.8669 184.247 102.37 185.544 104.631C188.66 110.062 192.319 115.516 194.313 121.497C195.178 124.093 195.975 126.59 197.062 129.074C197.844 130.86 199.405 132.329 200.353 133.989C201.638 136.237 202.398 138.897 203.861 141.09C205.314 143.271 208.338 145.399 210.356 147.023C215.393 151.075 218.449 157 222.567 161.918C224.883 164.685 228.057 167.525 231.14 169.409C233.655 170.946 235.727 174.045 237.397 176.445C239.45 179.396 242.511 182.209 245.04 184.738C248.526 188.224 251.745 192.165 255.324 195.52C258.724 198.708 262.867 200.414 266.907 202.664C272.35 205.696 277.402 209.235 283.188 211.627C288.334 213.755 293.186 216.567 298.43 218.426C302.893 220.008 307.285 221.783 311.723 223.405C315.347 224.73 318.901 225.687 322.722 226.112C326.341 226.514 330.559 226.688 334.045 227.909C335.306 228.35 338.736 228.812 339.068 230.637C339.583 233.472 338.263 234.846 336.556 236.85C334.927 238.763 333.042 239.981 330.927 241.332C328.978 242.577 327.106 244.213 324.973 245.142C320.26 247.196 313.832 245.851 308.822 246.095C303.896 246.335 299.402 247.768 294.576 248.433C289.01 249.201 283.687 250.798 278.685 253.326C274.201 255.592 271.178 259.118 267.426 262.376C263.697 265.614 258.328 268.623 253.354 269.304C246.837 270.197 241.002 270.548 234.734 272.898C231.483 274.117 226.575 275.518 226.074 279.523C225.823 281.527 226.299 286.058 223.909 286.928C221.532 287.792 218.638 286.928 216.115 286.928C214.419 286.928 211.989 286.566 210.875 285.174C209.286 283.188 208.151 280.233 207.368 277.791C206.552 275.247 205.56 272.063 205.419 269.391C205.073 262.808 203.471 256.439 203.471 249.819C203.471 243.914 201.587 238.951 200.548 233.343C199.465 227.492 198.205 222.177 195.677 216.759C192.969 210.956 189.173 205.938 186.324 200.239C183.939 195.471 181.179 191.639 178.14 187.249C175.168 182.956 171.045 179.391 168.505 174.908C166.381 171.159 164.426 167.478 162.335 163.737C160.112 159.758 158.614 155.45 156.489 151.504C153.916 146.724 154.368 141.973 154.368 136.674C154.368 133.111 155.527 128.391 157.962 125.675C161.753 121.446 162.552 116.272 162.552 110.78C162.552 103.373 160.103 96.7331 159.044 89.5839C158.341 84.8389 155.683 79.0633 151.618 76.2689C148.106 73.854 147.211 70.1884 145.015 66.8293Z" fill="#DCDCDC"/>
<path d="M133.237 62.1248C133.547 60.7315 134.699 58.8333 135.895 57.6319C136.237 57.819 136.257 58.2863 136.69 58.365C137.165 58.4514 137.596 58.4804 138.064 58.6362C139.356 59.0671 140.64 60.6719 141.733 61.5102C143.264 62.6842 144.8 64.0275 145.963 65.5773C147.152 67.163 148.613 68.4852 149.777 70.0962C151.042 71.8486 151.884 74.1454 153.085 76.007C154.761 78.6055 156.865 81.2118 157.911 84.1592C158.705 86.3964 159.778 88.6275 160.224 90.9738C160.462 92.2187 161.417 93.3588 161.743 94.6432C162.46 97.4722 162.859 102.036 162.05 104.946C161.541 106.78 161.484 108.707 160.839 110.514C160.195 112.318 159.256 114.078 158.471 115.828C156.712 119.753 154.663 123.667 153.826 127.939C152.981 132.247 153.262 137.37 154.043 141.676C154.716 145.388 155.348 149.203 157.17 152.558C157.978 154.047 158.987 155.259 159.646 156.824C161.154 160.404 164.042 163.567 164.816 167.434C165.841 172.561 168.727 176.478 171.359 180.865C174.597 186.261 177.139 192.016 180.361 197.386C183.379 202.416 186.361 207.544 189.037 212.769C190.972 216.546 192.415 220.709 194.496 224.391C197.34 229.422 198.13 234.924 199.702 240.479C200.913 244.757 202.961 248.988 203.552 253.421C203.887 255.933 204.185 258.366 204.185 260.941C204.185 263.535 204.69 266.025 204.836 268.569C205.021 271.809 205.998 275.524 206.932 278.619C207.617 280.886 207.69 283.18 208.27 285.415C208.413 285.966 209.267 288.946 208.162 288.813C206.618 288.628 204.981 287.809 203.462 287.44C199.917 286.577 196.573 285.298 192.924 285.018C186.786 284.545 180.71 285.011 174.577 284.258C169.248 283.605 164.162 282.559 158.76 282.559H151.783C145.825 282.559 140.07 280.405 134.231 279.559C131.691 279.19 128.887 278.469 126.441 277.697C123.69 276.828 120.867 276.752 118.108 275.763C112.344 273.695 106.72 272.46 100.61 272.129C98.1161 271.995 95.716 270.903 93.2356 270.593C90.6266 270.267 88.2316 269.812 85.6437 269.237C82.3393 268.503 79.2137 267.543 75.919 266.616C71.9254 265.493 68.0198 264.928 63.9166 264.592C58.1067 264.116 52.3168 263.557 46.5277 262.893C43.3458 262.528 40.082 263.075 36.9294 262.549C32.6875 261.842 28.2765 261.968 24.186 260.434C19.9017 258.828 15.483 257.537 11.1534 256.06C9.24891 255.41 7.27997 254.426 5.27872 254.108C4.66967 254.011 2.06156 254.233 1.80816 253.529C1.55506 252.826 1.87601 251.713 2.16968 251.089C3.47678 248.312 5.87857 246.073 7.33936 243.371C9.29076 239.761 13.3136 236.709 16.305 234.152C18.8075 232.013 21.5974 230.234 23.9329 227.898C26.453 225.378 29.3563 223.096 32.049 220.74C34.2876 218.781 37.0275 217.5 39.2251 215.534C41.5404 213.463 43.0811 210.727 45.4793 208.701C46.7388 207.638 47.9764 206.29 49.4921 205.611C51.6386 204.648 53.9157 203.666 55.9633 202.52C58.4422 201.131 60.6061 199.563 62.9767 197.983C64.6642 196.857 67.5566 195.766 68.7609 194.06C69.5974 192.875 71.982 191.638 73.1353 190.734C74.4039 189.74 76.4249 189.098 77.9434 188.529C80.5466 187.553 83.0043 186.198 85.4449 185.131C90.0924 183.097 94.8346 180.392 98.9114 177.394C102.783 174.548 107.29 170.925 108.781 166.079C109.809 162.738 111.131 159.987 111.131 156.444C111.131 152.686 111.456 148.988 111.456 145.255C111.456 133.23 110.932 121.091 112.125 109.158C112.43 106.101 112.827 102.814 113.734 99.8671C114.5 97.3765 114.575 94.6436 115.288 92.1487C116.889 86.547 120.312 82.4072 123.296 77.435C123.738 76.6972 124.2 75.7037 124.543 74.9044C125.223 73.3174 126.852 72.129 127.724 70.6023C128.572 69.118 129.738 67.7071 130.58 66.1918C131.302 64.8924 132.919 63.5576 133.237 62.1248Z" fill="#B6B5B5"/>
<circle cx="207" cy="45" r="45" fill="#EC6B62" fill-opacity="0.81"/>
<path fill-rule="evenodd" clip-rule="evenodd" d="M136.848 54.7628C137.531 55.2312 137.706 56.1648 137.237 56.8481C135.373 59.5673 133.448 62.2149 131.535 64.8461C124.811 74.0949 118.234 83.1406 114.968 94.3826C112.209 103.88 111.94 113.528 112.132 123.387C112.173 125.492 112.236 127.611 112.299 129.74C112.529 137.52 112.763 145.438 111.969 153.33C110.681 166.129 102.988 174.594 93.8196 181.165C89.2418 184.446 84.2473 187.29 79.4447 189.976C79.0262 190.21 78.6094 190.442 78.1945 190.674C73.8191 193.117 69.6592 195.439 66.0547 197.902C48.1157 210.159 31.0232 224.064 14.7586 238.982C10.4002 242.98 6.54262 246.881 3.24717 251.812C2.7869 252.501 1.85539 252.686 1.1666 252.226C0.477805 251.766 0.292558 250.834 0.752836 250.145C4.2471 244.916 8.31151 240.825 12.7307 236.772C29.0811 221.775 46.2851 207.776 64.3622 195.425C68.0851 192.881 72.3654 190.492 76.7127 188.065C77.1348 187.83 77.5576 187.594 77.9805 187.357C82.7882 184.669 87.647 181.898 92.0719 178.727C100.909 172.393 107.819 164.604 108.984 153.03C109.756 145.351 109.531 137.689 109.302 129.938C109.239 127.782 109.175 125.618 109.133 123.446C108.939 113.527 109.196 103.5 112.088 93.5456C115.514 81.7494 122.502 72.1486 129.278 62.8369C131.149 60.2666 133.004 57.7183 134.763 55.1519C135.231 54.4686 136.165 54.2944 136.848 54.7628Z" fill="black"/>
<path fill-rule="evenodd" clip-rule="evenodd" d="M134.977 54.9033C135.582 54.3381 136.531 54.3709 137.097 54.9766C137.894 55.8305 138.725 56.5923 139.604 57.3988C139.822 57.5983 140.042 57.8005 140.266 58.0075C141.373 59.0314 142.523 60.1428 143.576 61.4913C144.394 62.5389 145.292 63.6575 146.24 64.8389C149.215 68.5467 152.685 72.8723 155.75 77.5605C159.798 83.7536 163.269 90.7631 164.065 98.1629C164.886 105.779 162.951 112.692 160.874 119.291C160.67 119.938 160.465 120.582 160.261 121.223C158.361 127.195 156.537 132.927 156.401 139.062C156.262 145.334 158.316 151.595 161.122 157.478C163.197 161.829 165.626 165.866 167.824 169.519C168.609 170.824 169.365 172.081 170.065 173.285C172.888 178.143 175.807 182.859 178.71 187.551C192.03 209.074 205.019 230.064 206.949 261.771C207.035 263.178 207.013 265.123 206.986 267.234L206.984 267.414C206.958 269.504 206.929 271.793 206.985 274.041C207.042 276.359 207.188 278.584 207.506 280.457C207.833 282.384 208.307 283.717 208.871 284.437C209.735 285.54 211.087 286.048 212.836 286.263C213.702 286.369 214.599 286.396 215.509 286.411C215.631 286.413 215.754 286.415 215.877 286.417C216.644 286.429 217.439 286.441 218.14 286.507C218.965 286.584 219.571 287.315 219.493 288.14C219.416 288.965 218.685 289.571 217.86 289.493C217.286 289.44 216.626 289.429 215.848 289.417C215.721 289.415 215.591 289.413 215.458 289.411C214.541 289.395 213.506 289.368 212.471 289.241C210.42 288.989 208.099 288.318 206.509 286.287C205.462 284.95 204.892 282.988 204.548 280.959C204.195 278.878 204.044 276.489 203.986 274.115C203.929 271.81 203.958 269.473 203.984 267.395L203.987 267.197C204.013 265.042 204.032 263.225 203.955 261.954C202.074 231.062 189.539 210.786 176.261 189.308C173.331 184.57 170.366 179.774 167.471 174.792C166.813 173.659 166.085 172.449 165.317 171.173C163.102 167.491 160.558 163.263 158.414 158.77C155.518 152.697 153.248 145.942 153.402 138.995C153.548 132.403 155.509 126.251 157.394 120.339C157.602 119.687 157.809 119.037 158.012 118.391C160.085 111.803 161.83 105.421 161.083 98.4841C160.36 91.7711 157.181 85.2321 153.239 79.202C150.263 74.6487 146.926 70.49 143.967 66.8011C142.999 65.5955 142.072 64.4402 141.212 63.3376C140.313 62.1872 139.31 61.2094 138.229 60.2097C138.028 60.0234 137.822 59.8351 137.614 59.6442C136.726 58.8312 135.788 57.9715 134.903 57.0234C134.338 56.4177 134.371 55.4686 134.977 54.9033Z" fill="black"/>
<path d="M136 56C138.087 58.236 140.442 59.9156 142.394 62.4145C149.275 71.2267 161.054 84.2107 162.574 98.3235C164.141 112.876 155.215 124.916 154.902 139.028C154.608 152.248 163.551 165.06 168.768 174.038C184.666 201.395 203.129 223.701 205.452 261.863C205.778 267.218 204.468 281.249 207.69 285.362C210.144 288.495 215.036 287.722 218 288" stroke="black" stroke-width="3" stroke-linecap="round"/>
<path d="M136 56C150.412 62.2544 163.327 72.4682 175.543 86.271C186.857 99.0535 192.346 119.159 201.241 135.295C208.976 149.326 219.849 159.605 229.595 169.848C242.064 182.952 254.772 195.542 268.759 204.402C282.236 212.938 296.493 217.204 310.672 221.826C318.219 224.285 326.213 228.766 334 228.766" stroke="black" stroke-width="3" stroke-linecap="round"/>
</svg>
